<svg width="71" height="79" viewBox="0 0 71 79" fill="none" xmlns="http://www.w3.org/2000/svg">
<path fill-rule="evenodd" clip-rule="evenodd" d="M69.4603 15.3013C69.5312 15.2201 69.6289 15.0109 69.6777 14.8365C69.7792 14.4726 69.7191 14.0942 69.498 13.7079C69.1647 13.1252 69.0465 13.0599 67.6103 12.666C65.5725 12.1069 62.5198 10.8838 59.8263 9.54719C53.4647 6.39037 50.5757 5.14091 49.7858 5.20483C49.2444 5.24857 48.9005 5.40857 48.5926 5.7601C48.0844 6.34014 48.1301 6.71213 48.9168 8.39752C49.8623 10.4235 51.2858 12.8846 52.7518 15.0279C53.1008 15.538 53.3882 15.9932 53.3905 16.0393C53.3934 16.0957 53.2031 16.1221 52.8121 16.1195C51.5788 16.1116 41.9558 16.8332 39.4272 17.1233C31.4917 18.0335 25.6378 19.2486 19.8304 21.1908C10.823 24.2033 6.20418 27.6585 4.9814 32.2989C4.40447 34.4884 4.43358 36.7754 5.06589 38.9299C6.00032 42.114 7.73555 43.9845 11.5356 45.904C13.0793 46.6837 14.3099 47.1553 18.4637 48.5586C19.7208 48.9833 20.9947 49.4284 21.2945 49.5476C21.5942 49.6667 22.0692 49.8536 22.35 49.9628C23.1651 50.2799 24.8586 51.1134 25.575 51.5499C26.3223 52.0053 27.0312 52.6594 27.3179 53.1579C27.4746 53.4305 27.5186 53.6177 27.5454 54.1276C27.5743 54.6754 27.5532 54.8155 27.3869 55.1805C26.7729 56.528 25.2527 57.8335 22.4411 59.4276C20.9873 60.2518 19.361 61.0265 16.1207 62.4381C14.5281 63.132 12.9346 63.8688 12.5796 64.0756C10.8537 65.0806 9.42153 66.6015 8.94624 67.9342C8.5178 69.1353 8.60885 70.6175 9.16997 71.8067C9.17031 71.8077 9.17064 71.8087 9.17097 71.8097L9.17134 71.8096C9.17089 71.8086 9.17042 71.8077 9.16997 71.8067C8.71317 70.4456 11.2609 68.1351 13.4351 66.8376C14.6752 66.0976 15.0395 65.9367 17.8189 64.9009C21.7068 63.452 23.7311 62.4743 25.4962 61.1927C27.2631 59.9099 28.8434 58.1533 29.8288 56.3765C30.4522 55.2528 30.6476 54.394 30.529 53.2987C30.4084 52.1851 29.9557 51.3459 28.9322 50.3394C27.2558 48.6908 24.2836 47.2556 19.111 45.5968C14.7834 44.2091 14.3927 44.0662 13.3312 43.4827C12.3864 42.9635 11.5692 42.3554 10.5945 41.4465C9.19308 40.1396 8.36065 38.9676 7.81666 37.5353C6.88675 35.0869 7.30445 32.8848 9.10842 30.7255C11.7254 27.5931 15.7579 25.4051 22.3908 23.5185C28.1088 21.8922 33.8227 20.8781 42.1674 20.0087C47.6284 19.4398 53.4072 18.8738 53.4405 18.9047C53.5177 18.9762 50.4729 22.6318 49.3985 23.7576C48.7772 24.4086 48.6401 24.6588 48.6642 25.0985C48.698 25.7161 49.3771 26.4173 49.9942 26.4719C50.4239 26.5098 51.5882 26.0512 53.5468 25.0723C55.7809 23.9559 57.7886 22.74 62.5164 19.6404C64.5223 18.3252 66.7993 16.9026 68.0169 16.2038C68.74 15.7887 69.3895 15.3826 69.4603 15.3013ZM58.1383 11.8367C60.1645 12.816 62.2639 13.7584 63.5408 14.2618C64.1207 14.4904 64.5962 14.6988 64.5975 14.7247C64.5988 14.7508 64.1002 15.0898 63.4895 15.4783C62.8788 15.8667 61.8228 16.5514 61.1427 16.9998C59.5066 18.0787 56.0469 20.281 55.6974 20.4662L55.4204 20.6129L55.5992 20.2645C55.8558 19.7642 56.0855 19.1189 56.1645 18.6764C56.2102 18.4203 56.3317 18.1653 56.5315 17.9063C56.6957 17.6932 56.8473 17.407 56.8686 17.2701C56.9202 16.9371 56.6584 15.7599 56.377 15.0591C55.8745 13.8077 55.1923 12.6388 53.6404 10.3702C53.2867 9.85306 53.0075 9.41677 53.02 9.40054C53.0326 9.38439 53.8513 9.76259 54.8394 10.2409C55.8275 10.7192 57.312 11.4373 58.1383 11.8367Z" fill="#EBCE69"/>
</svg>
