<svg width="207" height="30" viewBox="0 0 207 30" fill="none" xmlns="http://www.w3.org/2000/svg">
<path d="M81.7628 17.0056C82.3446 17.2896 82.856 17.7512 83.3144 18.3725C83.7729 18.9938 83.9845 19.8281 83.9845 20.8932C83.9845 22.6328 83.3673 23.9464 82.1507 24.834C80.934 25.7393 79.3294 26.1831 77.3193 26.1831C76.2261 26.1831 75.1681 25.97 74.1455 25.5618C73.1051 25.1535 72.6114 24.5322 71.9414 23.7156C71.2713 22.8991 71.0421 21.9405 70.9363 20.8222C70.9187 20.5381 70.9187 20.4671 70.9187 20.2541L74.6039 20.1831C74.6039 20.1831 74.6392 20.5204 74.6568 20.8222C74.6921 21.1772 74.8508 21.5145 75.1329 21.8517C75.3621 22.1358 75.6971 22.3488 76.1556 22.4908C76.5964 22.6328 77.0725 22.686 77.6014 22.686C78.3773 22.686 78.9768 22.5618 79.4 22.3133C79.8408 22.0648 80.0524 21.621 80.0524 20.9642C80.0524 20.5026 79.8408 20.1476 79.4 19.9346C78.9592 19.7216 78.2891 19.4908 77.3546 19.2778C76.5259 19.0825 75.9616 18.9405 75.6971 18.8518C74.6744 18.5322 73.8281 18.195 73.158 17.8222C72.488 17.4494 71.9237 16.9524 71.5006 16.3133C71.0597 15.6743 70.8481 14.8577 70.8481 13.8459C70.8481 12.7986 71.1303 11.911 71.6945 11.1654C72.2588 10.4199 72.9993 9.86959 73.9162 9.47906C74.8508 9.08853 75.8558 8.87552 76.9314 8.82227C78.0423 8.82227 79.1179 8.99978 80.1405 9.35481C81.1632 9.70983 81.8157 10.2424 82.4504 10.9524C83.0852 11.6625 83.4202 12.55 83.4202 13.6151C83.4202 13.9169 83.4202 14.3074 83.4202 14.3074L79.8761 14.2897C79.8761 14.2897 79.8584 13.9879 79.8232 13.8636C79.7879 13.7394 79.7526 13.6684 79.735 13.6329C79.6292 13.3844 79.4529 13.1358 79.206 12.8696C78.9768 12.6566 78.6594 12.479 78.2715 12.3725C77.8836 12.2483 77.478 12.195 77.0901 12.195C76.5611 12.195 76.0498 12.3193 75.5913 12.55C75.1152 12.7808 74.886 13.1536 74.886 13.6506C74.886 14.1654 75.221 14.5914 75.9087 14.911C76.5788 15.2305 77.478 15.5323 78.5712 15.8518C79.0297 15.9583 79.3647 16.0471 79.5763 16.1536C80.4227 16.4553 81.1632 16.7216 81.7628 17.0056Z" fill="#345D40"/>
<path d="M192.513 17.7337C192.513 12.8166 188.669 8.94678 183.785 8.94678C178.901 8.94678 175.057 12.8166 175.057 17.7337C175.057 22.4733 178.901 26.5206 183.785 26.5206C188.669 26.5206 192.513 22.4733 192.513 17.7337ZM189.022 17.7337C189.022 20.7159 186.747 23.0058 183.785 23.0058C180.823 23.0058 178.548 20.7159 178.548 17.7337C178.548 14.7515 180.823 12.4615 183.785 12.4615C186.765 12.4615 189.022 14.7337 189.022 17.7337Z" fill="#009C40"/>
<path d="M128.983 25.8105V15.0887V15.2662L130.905 8.94678H132.65V15.6213H139.457V8.94678H143.124V25.8105H139.457V18.9585H132.65V25.8105H128.983Z" fill="#009C40"/>
<path d="M144.517 25.8103L151.676 8.76904H155.167L162.326 25.8103H158.482C156.384 20.7157 155.52 18.6033 153.245 13.1536C151.147 18.6033 150.107 21.053 148.185 25.8103H144.517Z" fill="#009C40"/>
<path d="M165.641 25.8105V19.136L159.188 8.94678H163.543L167.563 15.6213L171.566 8.94678H175.939L169.309 19.136V25.8105H165.641Z" fill="#009C40"/>
<path d="M197.75 25.8105V12.284H192.689V8.94678H206.654V12.284H201.418V25.8105H197.75Z" fill="#009C40"/>
<path d="M65.6286 17.3787C65.6286 20.3609 63.1777 22.6508 60.3917 22.6508C57.4294 22.6508 54.9785 20.3609 54.9785 17.3787C54.9785 14.3965 57.4294 12.1066 60.3917 12.1066C63.1777 12.1066 65.6286 14.3787 65.6286 17.3787ZM69.1199 17.3787C69.1199 12.4616 65.0996 8.5918 60.3917 8.5918C55.5075 8.5918 51.6636 12.4616 51.6636 17.3787C51.6636 22.2958 55.5075 26.1656 60.3917 26.1656C65.0996 26.1656 69.1199 22.2958 69.1199 17.3787Z" fill="#345D40"/>
<path d="M96.1683 29.8577C85.3419 24.4081 83.0849 16.8638 88.1455 6.14196C89.7148 2.98222 91.6368 0 91.6368 0C93.9114 6.6745 99.1483 8.96442 100.894 13.349C101.247 14.2188 103.68 18.2661 102.463 22.6684C101.247 27.053 99.6772 27.4081 99.6772 27.4081C99.6772 27.4081 99.5009 26.5382 98.9719 25.1181C96.521 19.6685 91.6368 14.5738 91.6368 8.07685C91.6368 7.89934 90.7728 11.4141 91.9894 15.2839C93.2061 19.1359 97.2263 23.698 96.1683 29.8577Z" fill="#009C40"/>
<path d="M7.15885 8.76904L0 25.8103H3.66759C5.76587 20.5382 6.45354 18.7808 8.72815 13.1536C10.8264 18.2482 12.0431 21.053 13.965 25.8103H17.809L10.4738 8.76904H7.15885Z" fill="#345D40"/>
<path d="M46.4269 19.6508C48.8778 18.781 50.0944 17.0236 50.0944 14.5561C50.0944 12.7988 49.5655 11.5739 48.7015 10.5088C47.4848 9.46152 45.9155 8.75146 43.8172 8.75146H35.9707V25.7927H39.8146V20.3431H42.6006L46.2682 25.7927H50.6234L46.4269 19.6508ZM45.5629 16.3135C45.0339 16.8461 44.3462 17.0236 43.4646 17.0236H39.797V12.284H43.4646C45.0339 12.284 46.2505 12.8165 46.2505 14.5739C46.2505 15.4437 46.0742 15.9763 45.5629 16.3135Z" fill="#345D40"/>
<path d="M32.7436 16.4201H26.6427C26.3253 16.4201 25.7963 16.4201 25.7963 16.4201C25.7963 16.4201 25.7963 16.8994 25.7963 17.1479V19.1183C25.7963 19.3669 25.8669 19.5621 25.9903 19.6686C26.1137 19.7929 26.343 19.8461 26.6603 19.8461H29.6579C29.6579 20.7692 29.3758 21.4438 28.7939 21.8875C28.212 22.3313 27.207 22.6509 26.1843 22.6509C24.615 22.6509 23.3983 22.1183 22.5167 21.2485C21.6527 20.2012 21.1237 18.7811 21.1237 17.3787C21.1237 15.7988 21.6527 14.574 22.5167 13.5089C23.3807 12.4616 24.615 11.929 26.0079 11.929C26.3959 11.929 26.7661 11.9646 27.1188 12.0178C27.5596 12.1421 28.1239 12.3196 28.4589 12.4793C29.4992 12.9764 29.8342 14.219 29.8519 14.29L33.5371 14.3077C33.5371 14.3077 33.5371 13.8462 33.4842 13.4379C33.3607 12.3728 33.255 11.6628 32.4615 10.864C31.668 10.0829 30.9803 9.55037 29.7637 9.14209C29.7284 9.12434 29.6932 9.12434 29.6579 9.10659C28.7939 8.75156 27.5596 8.5918 26.0079 8.5918C23.557 8.5918 21.4764 9.46161 19.7307 11.0592C17.9851 12.7989 17.2798 14.9113 17.2798 17.3787C17.2798 19.8461 17.9851 21.9408 19.7307 23.5207C21.3 25.2781 23.3983 26.1479 26.0079 26.1479C27.207 26.1479 28.4236 26.1834 29.605 25.8106C30.7864 25.4201 31.7914 24.8343 32.6025 23.6982C33.255 22.7751 33.5194 21.9408 33.59 20.8047V17.1479C33.59 16.8994 33.5723 16.4201 33.5723 16.4201C33.5723 16.4201 33.061 16.4201 32.7436 16.4201Z" fill="#345D40"/>
<path d="M104.35 29.9641C109.64 29.396 113.713 28.1889 118.579 23.1476C125.421 16.0648 125.703 5.04123 132.439 0.851916C129.617 -0.958718 113.36 0.798662 107.4 13.4909C105.778 17.1299 103.451 27.0884 100.7 28.0824C100.1 28.4552 103.662 28.402 105.549 25.118C109.128 18.8873 109.217 13.9879 115.229 8.14771C119.355 4.13591 125.086 3.72763 125.086 3.72763C125.086 3.72763 123.358 5.94655 121.665 10.9169C118.139 21.2837 113.166 27.7452 102.481 29.6801C102.481 29.6978 102.904 30.1238 104.35 29.9641Z" fill="#345D40"/>
<path d="M13.877 19.2246H4.37305V22.6506H13.877V19.2246Z" fill="#2E6C3C"/>
<path d="M158.641 19.2246H149.137V22.6506H158.641V19.2246Z" fill="#009C40"/>
</svg>
