<svg width="36" height="36" viewBox="0 0 36 36" fill="none" xmlns="http://www.w3.org/2000/svg">
<circle cx="18" cy="18" r="18" fill="#EBCE69"/>
<g clip-path="url(#clip0)">
<path d="M12.0704 10.5884H23.9293C24.7446 10.5884 25.4116 11.2554 25.4116 12.0707V23.9296C25.4116 24.7448 24.7446 25.4119 23.9293 25.4119H12.0704C11.2552 25.4119 10.5881 24.7448 10.5881 23.9296V12.0707C10.5881 11.2554 11.2552 10.5884 12.0704 10.5884ZM17.9999 15.0354C16.3693 15.0354 15.0352 16.3696 15.0352 18.0001C15.0352 19.6307 16.3693 20.9648 17.9999 20.9648C19.6304 20.9648 20.9646 19.6307 20.9646 18.0001C20.9646 16.3696 19.6304 15.0354 17.9999 15.0354ZM23.5587 23.9296C23.781 23.9296 23.9293 23.7813 23.9293 23.559V17.259H22.3728C22.4469 17.4813 22.4469 17.7778 22.4469 18.0001C22.4469 20.446 20.4457 22.4472 17.9999 22.4472C15.554 22.4472 13.5528 20.446 13.5528 18.0001C13.5528 17.7778 13.5528 17.4813 13.6269 17.259H12.0704V23.559C12.0704 23.7813 12.2187 23.9296 12.441 23.9296H23.5587ZM12.0704 13.9237C12.0704 14.146 12.2187 14.2943 12.441 14.2943H13.9234C14.1457 14.2943 14.294 14.146 14.294 13.9237V12.4413C14.294 12.219 14.1457 12.0707 13.9234 12.0707H12.441C12.2187 12.0707 12.0704 12.219 12.0704 12.4413V13.9237Z" fill="#333333"/>
</g>
<defs>
<clipPath id="clip0">
<rect width="14.8235" height="14.8235" transform="matrix(-1 0 0 1 25.4116 10.5884)" fill="white"/>
</clipPath>
</defs>
</svg>
