<svg width="14" height="19" viewBox="0 0 14 19" fill="none" xmlns="http://www.w3.org/2000/svg">
<path d="M6.86634 0C3.08022 0 0 3.08684 0 6.88105C0 11.5898 6.1447 18.5025 6.40631 18.7945C6.65204 19.0688 7.08107 19.0683 7.32636 18.7945C7.58797 18.5025 13.7327 11.5898 13.7327 6.88105C13.7326 3.08684 10.6524 0 6.86634 0ZM6.86634 10.3431C4.96145 10.3431 3.41175 8.79003 3.41175 6.88105C3.41175 4.97207 4.96148 3.41904 6.86634 3.41904C8.77119 3.41904 10.3209 4.97211 10.3209 6.88109C10.3209 8.79007 8.77119 10.3431 6.86634 10.3431Z" fill="#009C40"/>
</svg>
