<svg width="208" height="30" viewBox="0 0 208 30" fill="none" xmlns="http://www.w3.org/2000/svg">
<path d="M82.3721 17.0058C82.954 17.2898 83.4654 17.7513 83.9238 18.3726C84.3822 18.9939 84.5938 19.8282 84.5938 20.8933C84.5938 22.6329 83.9767 23.9465 82.76 24.8341C81.5434 25.7394 79.9388 26.1832 77.9287 26.1832C76.8355 26.1832 75.7775 25.9702 74.7548 25.5619C73.7145 25.1536 73.2208 24.5323 72.5507 23.7158C71.8807 22.8992 71.6515 21.9406 71.5457 20.8223C71.5281 20.5383 71.5281 20.4673 71.5281 20.2543L75.2133 20.1833C75.2133 20.1833 75.2485 20.5205 75.2662 20.8223C75.3014 21.1773 75.4601 21.5146 75.7423 21.8519C75.9715 22.1359 76.3065 22.3489 76.7649 22.4909C77.2058 22.6329 77.6818 22.6862 78.2108 22.6862C78.9867 22.6862 79.5862 22.5619 80.0094 22.3134C80.4502 22.0649 80.6618 21.6211 80.6618 20.9643C80.6618 20.5028 80.4502 20.1478 80.0094 19.9347C79.5685 19.7217 78.8985 19.491 77.964 19.2779C77.1352 19.0827 76.571 18.9407 76.3065 18.8519C75.2838 18.5324 74.4374 18.1951 73.7674 17.8223C73.0974 17.4496 72.5331 16.9525 72.1099 16.3135C71.6691 15.6744 71.4575 14.8579 71.4575 13.846C71.4575 12.7987 71.7396 11.9111 72.3039 11.1656C72.8681 10.42 73.6087 9.86975 74.5256 9.47922C75.4601 9.08869 76.4652 8.87567 77.5408 8.82242C78.6516 8.82242 79.7272 8.99993 80.7499 9.35496C81.7726 9.70998 82.425 10.2425 83.0598 10.9526C83.6946 11.6626 84.0296 12.5502 84.0296 13.6153C84.0296 13.917 84.0296 14.3076 84.0296 14.3076L80.4854 14.2898C80.4854 14.2898 80.4678 13.9881 80.4325 13.8638C80.3973 13.7395 80.362 13.6685 80.3444 13.633C80.2386 13.3845 80.0623 13.136 79.8154 12.8697C79.5862 12.6567 79.2688 12.4792 78.8809 12.3727C78.4929 12.2484 78.0874 12.1952 77.6995 12.1952C77.1705 12.1952 76.6592 12.3194 76.2007 12.5502C75.7246 12.781 75.4954 13.1537 75.4954 13.6508C75.4954 14.1656 75.8304 14.5916 76.5181 14.9111C77.1881 15.2306 78.0874 15.5324 79.1806 15.8519C79.6391 15.9584 79.9741 16.0472 80.1857 16.1537C81.032 16.4555 81.7726 16.7218 82.3721 17.0058Z" fill="#2E6C3C"/>
<path d="M193.122 17.7336C193.122 12.8165 189.278 8.94667 184.394 8.94667C179.51 8.94667 175.666 12.8165 175.666 17.7336C175.666 22.4732 179.51 26.5205 184.394 26.5205C189.278 26.5205 193.122 22.4732 193.122 17.7336ZM189.631 17.7336C189.631 20.7158 187.356 23.0057 184.394 23.0057C181.432 23.0057 179.157 20.7158 179.157 17.7336C179.157 14.7514 181.432 12.4614 184.394 12.4614C187.374 12.4614 189.631 14.7336 189.631 17.7336Z" fill="#009C40"/>
<path d="M129.592 25.8104V15.0886V15.2661L131.514 8.94667H133.26V15.6212H140.066V8.94667H143.734V25.8104H140.066V18.9584H133.26V25.8104H129.592Z" fill="#009C40"/>
<path d="M145.126 25.8104L152.285 8.76915H155.777L162.935 25.8104H159.092C156.993 20.7158 156.129 18.6034 153.855 13.1537C151.756 18.6034 150.716 21.0531 148.794 25.8104H145.126Z" fill="#009C40"/>
<path d="M166.25 25.8104V19.1359L159.797 8.94667H164.152L168.172 15.6212L172.175 8.94667H176.548L169.918 19.1359V25.8104H166.25Z" fill="#009C40"/>
<path d="M198.359 25.8104V12.2839H193.299V8.94667H207.264V12.2839H202.027V25.8104H198.359Z" fill="#009C40"/>
<path d="M66.238 17.3786C66.238 20.3608 63.7871 22.6507 61.0011 22.6507C58.0388 22.6507 55.5879 20.3608 55.5879 17.3786C55.5879 14.3963 58.0388 12.1064 61.0011 12.1064C63.7871 12.1064 66.238 14.3786 66.238 17.3786ZM69.7293 17.3786C69.7293 12.4614 65.709 8.59164 61.0011 8.59164C56.1169 8.59164 52.2729 12.4614 52.2729 17.3786C52.2729 22.2957 56.1169 26.1655 61.0011 26.1655C65.709 26.1655 69.7293 22.2957 69.7293 17.3786Z" fill="#2E6C3C"/>
<path d="M96.7777 29.8577C85.9513 24.4081 83.6943 16.8638 88.7549 6.14196C90.3242 2.98222 92.2461 0 92.2461 0C94.5207 6.6745 99.7576 8.96442 101.503 13.349C101.856 14.2188 104.289 18.2661 103.073 22.6684C101.856 27.053 100.287 27.4081 100.287 27.4081C100.287 27.4081 100.11 26.5382 99.5813 25.1181C97.1304 19.6685 92.2461 14.5738 92.2461 8.07685C92.2461 7.89934 91.3821 11.4141 92.5988 15.2839C93.8154 19.1359 97.8357 23.698 96.7777 29.8577Z" fill="#009C40"/>
<path d="M7.76822 8.76915L0.609375 25.8104H4.27696C6.37525 20.5383 7.06292 18.7809 9.33753 13.1537C11.4358 18.2484 12.6525 21.0531 14.5744 25.8104H18.4183L11.0832 8.76915H7.76822Z" fill="#2E6C3C"/>
<path d="M47.0362 19.6507C49.4872 18.7809 50.7038 17.0235 50.7038 14.5561C50.7038 12.7987 50.1748 11.5738 49.3108 10.5088C48.0942 9.46144 46.5249 8.75139 44.4266 8.75139H36.5801V25.7927H40.424V20.343H43.2099L46.8775 25.7927H51.2328L47.0362 19.6507ZM46.1722 16.3135C45.6432 16.846 44.9556 17.0235 44.0739 17.0235H40.4064V12.2839H44.0739C45.6433 12.2839 46.8599 12.8164 46.8599 14.5738C46.8599 15.4436 46.6836 15.9762 46.1722 16.3135Z" fill="#2E6C3C"/>
<path d="M33.353 16.42H27.2521C26.9347 16.42 26.4057 16.42 26.4057 16.42C26.4057 16.42 26.4057 16.8993 26.4057 17.1478V19.1182C26.4057 19.3667 26.4763 19.562 26.5997 19.6685C26.7231 19.7927 26.9523 19.846 27.2697 19.846H30.2673C30.2673 20.769 29.9851 21.4436 29.4033 21.8874C28.8214 22.3312 27.8163 22.6507 26.7936 22.6507C25.2243 22.6507 24.0077 22.1181 23.1261 21.2483C22.2621 20.201 21.7331 18.7809 21.7331 17.3785C21.7331 15.7987 22.2621 14.5738 23.1261 13.5087C23.9901 12.4614 25.2243 11.9289 26.6173 11.9289C27.0052 11.9289 27.3755 11.9644 27.7282 12.0176C28.169 12.1419 28.7332 12.3194 29.0683 12.4792C30.1086 12.9762 30.4436 14.2188 30.4612 14.2898L34.1465 14.3076C34.1465 14.3076 34.1465 13.846 34.0936 13.4377C33.9701 12.3727 33.8643 11.6626 33.0709 10.8638C32.2774 10.0827 31.5897 9.5502 30.3731 9.14192C30.3378 9.12417 30.3025 9.12417 30.2673 9.10642C29.4033 8.75139 28.169 8.59163 26.6173 8.59163C24.1664 8.59163 22.0857 9.46144 20.3401 11.0591C18.5945 12.7987 17.8892 14.9111 17.8892 17.3785C17.8892 19.846 18.5945 21.9406 20.3401 23.5205C21.9094 25.2779 24.0077 26.1477 26.6173 26.1477C27.8163 26.1477 29.033 26.1832 30.2144 25.8104C31.3958 25.4199 32.4008 24.8341 33.2119 23.698C33.8643 22.7749 34.1288 21.9406 34.1993 20.8045V17.1478C34.1993 16.8993 34.1817 16.42 34.1817 16.42C34.1817 16.42 33.6704 16.42 33.353 16.42Z" fill="#2E6C3C"/>
<path d="M104.959 29.9642C110.249 29.3962 114.322 28.1891 119.189 23.1477C126.03 16.0649 126.312 5.04137 133.048 0.852054C130.227 -0.958581 113.97 0.7988 108.01 13.491C106.388 17.13 104.06 27.0885 101.309 28.0826C100.71 28.4554 104.272 28.4021 106.158 25.1181C109.738 18.8874 109.826 13.988 115.839 8.14785C119.965 4.13605 125.695 3.72777 125.695 3.72777C125.695 3.72777 123.967 5.94668 122.275 10.9171C118.748 21.2838 113.776 27.7453 103.09 29.6802C103.09 29.6979 103.513 30.124 104.959 29.9642Z" fill="#2E6C3C"/>
<path d="M14.4864 19.2247H4.98242V22.6507H14.4864V19.2247Z" fill="#2E6C3C"/>
<path d="M159.25 19.2247H149.746V22.6507H159.25V19.2247Z" fill="#009C40"/>
</svg>
