<svg width="18" height="14" viewBox="0 0 18 14" fill="none" xmlns="http://www.w3.org/2000/svg">
<path d="M8.11732 6.64824C8.58733 6.96159 9.41203 6.96162 9.88214 6.6482C9.88221 6.64817 9.88232 6.6481 9.88239 6.64806L17.8933 1.3074C17.6306 0.547458 16.9083 0 16.0602 0H1.93912C1.09097 0 0.368752 0.547458 0.105957 1.3074L8.11707 6.6481C8.11718 6.64817 8.11725 6.64817 8.11732 6.64824Z" fill="#009C40"/>
<path d="M10.4677 7.52594C10.4676 7.52601 10.4675 7.52608 10.4675 7.52612C10.0561 7.80037 9.52795 7.93752 9 7.93752C8.47195 7.93752 7.94404 7.80041 7.5326 7.52608C7.53253 7.52605 7.5325 7.52601 7.53243 7.52598L0 2.50439V11.5422C0 12.6115 0.870019 13.4815 1.93944 13.4815H16.0606C17.13 13.4815 18 12.6115 18 11.5422V2.50439L10.4677 7.52594Z" fill="#009C40"/>
</svg>
